<svg xmlns="http://www.w3.org/2000/svg" width="156" height="16" viewBox="0 0 156 16">
    <path fill="#323232" d="M7.86 15.3c1 0 1.857-.183 2.57-.55.713-.367 1.25-.823 1.61-1.37l.18 1.62h2.24V7.62H7.38v2.4h4.48c-.107.653-.473 1.277-1.1 1.87-.627.593-1.527.89-2.7.89-1.267 0-2.33-.427-3.19-1.28-.86-.853-1.29-2.047-1.29-3.58 0-1.56.443-2.753 1.33-3.58S6.84 3.1 8.04 3.1c1.053 0 1.903.27 2.55.81.647.54 1.077 1.177 1.29 1.91l2.64-.94c-.387-1.227-1.13-2.26-2.23-3.1C11.19.94 9.773.52 8.04.52c-2 0-3.71.68-5.13 2.04C1.49 3.92.78 5.707.78 7.92c0 2.227.687 4.013 2.06 5.36 1.373 1.347 3.047 2.02 5.02 2.02zm12.56-.3V9.54h1.44L24.64 15h3.08l-3.04-5.8c.933-.267 1.67-.757 2.21-1.47s.81-1.563.81-2.55c0-1.253-.413-2.293-1.24-3.12S24.54.82 23.18.82h-5.54V15h2.78zm2.24-7.84h-2.24V3.22h2.24c.693 0 1.237.18 1.63.54.393.36.59.84.59 1.44 0 .587-.197 1.06-.59 1.42-.393.36-.937.54-1.63.54zm13.18 8.16c1.587 0 2.893-.47 3.92-1.41 1.027-.94 1.54-2.25 1.54-3.93V.82h-2.76v8.96c0 .92-.237 1.623-.71 2.11-.473.487-1.137.73-1.99.73-.84 0-1.497-.243-1.97-.73-.473-.487-.71-1.19-.71-2.11V.82H30.4v9.16c0 1.68.513 2.99 1.54 3.93 1.027.94 2.327 1.41 3.9 1.41zM47.56 15V9.66h2.54c1.387 0 2.51-.413 3.37-1.24.86-.827 1.29-1.887 1.29-3.18 0-1.293-.43-2.353-1.29-3.18-.86-.827-1.983-1.24-3.37-1.24h-5.3V15h2.76zm2.2-7.72h-2.18V3.22h2.18c.693 0 1.237.183 1.63.55.393.367.59.863.59 1.49 0 .613-.2 1.103-.6 1.47-.4.367-.94.55-1.62.55zm14 8.02c2.013 0 3.733-.68 5.16-2.04 1.427-1.36 2.14-3.14 2.14-5.34 0-2.213-.713-4-2.14-5.36C67.493 1.2 65.773.52 63.76.52c-2 0-3.713.68-5.14 2.04-1.427 1.36-2.14 3.147-2.14 5.36 0 2.2.713 3.98 2.14 5.34 1.427 1.36 3.14 2.04 5.14 2.04zm0-2.68c-1.187 0-2.22-.41-3.1-1.23-.88-.82-1.32-1.983-1.32-3.49 0-1.507.44-2.667 1.32-3.48.88-.827 1.913-1.24 3.1-1.24 1.2 0 2.24.41 3.12 1.23.88.82 1.32 1.983 1.32 3.49 0 1.507-.44 2.67-1.32 3.49-.88.82-1.92 1.23-3.12 1.23zm21.86 2.68c.947 0 1.817-.147 2.61-.44.793-.293 1.45-.68 1.97-1.16.52-.48.943-.993 1.27-1.54.327-.547.563-1.107.71-1.68L89.6 9.7c-.227.787-.67 1.467-1.33 2.04s-1.543.86-2.65.86c-1.213 0-2.25-.42-3.11-1.26-.86-.84-1.29-1.98-1.29-3.42 0-1.507.437-2.673 1.31-3.5s1.89-1.24 3.05-1.24c1.12 0 2 .277 2.64.83.64.553 1.06 1.23 1.26 2.03l2.6-.82c-.32-1.293-1.03-2.4-2.13-3.32C88.85.98 87.393.52 85.58.52c-1.973 0-3.67.687-5.09 2.06s-2.13 3.153-2.13 5.34c0 2.2.7 3.98 2.1 5.34 1.4 1.36 3.12 2.04 5.16 2.04zM95.8 15l1.18-3.24h5.76l1.18 3.24h3L101.52.82h-3.2L92.88 15h2.92zm6.02-5.76H97.9l1.96-5.36 1.96 5.36zm12.8 5.76c1.32 0 2.38-.37 3.18-1.11.8-.74 1.2-1.69 1.2-2.85 0-.853-.237-1.583-.71-2.19s-1.07-.997-1.79-1.17c.6-.2 1.093-.577 1.48-1.13.387-.553.58-1.19.58-1.91 0-1.133-.383-2.053-1.15-2.76-.767-.707-1.823-1.06-3.17-1.06h-5.1V15h5.48zm-.8-8.32h-1.96V3.14h1.94c.653 0 1.157.157 1.51.47.353.313.53.743.53 1.29s-.18.98-.54 1.3c-.36.32-.853.48-1.48.48zm.28 6.02h-2.24V8.96h2.28c.667 0 1.183.173 1.55.52.367.347.55.807.55 1.38 0 .573-.19 1.023-.57 1.35-.38.327-.903.49-1.57.49zm16.52 2.3v-2.6h-6.12V9.12h5.54V6.66h-5.54V3.42h6.12V.82h-8.88V15h8.88zm5.94 0V9.54H138l2.78 5.46h3.08l-3.04-5.8c.933-.267 1.67-.757 2.21-1.47s.81-1.563.81-2.55c0-1.253-.413-2.293-1.24-3.12S140.68.82 139.32.82h-5.54V15h2.78zm2.24-7.84h-2.24V3.22h2.24c.693 0 1.237.18 1.63.54.393.36.59.84.59 1.44 0 .587-.197 1.06-.59 1.42-.393.36-.937.54-1.63.54zM155.56 15v-2.6h-6.12V9.12h5.54V6.66h-5.54V3.42h6.12V.82h-8.88V15h8.88z"/>
</svg>
