<svg xmlns="http://www.w3.org/2000/svg" width="30" height="28" viewBox="0 0 30 28">
    <path fill="#DA322A" fill-rule="evenodd" d="M21.575 12.887c-.07-1.013-.341-2.026-.89-2.903l-4.658-8.026C15.685 1.349 15.41.675 15.273 0l-.205.338c-1.165 1.956-1.165 4.453 0 6.409l3.767 6.41c1.165 1.956 1.165 4.45 0 6.409l-.205.336c-.138-.673-.412-1.347-.754-1.954l-3.424-5.87L12.26 8.3c-.344-.608-.618-1.283-.754-1.958l-.205.337c-1.165 1.956-1.165 4.386 0 6.41l3.766 6.41c1.164 1.956 1.164 4.453 0 6.409l-.206.338c-.136-.674-.41-1.351-.754-1.956l-4.725-8.03c-.616-1.079-.89-2.294-.89-3.51C3.493 14.035 0 16.8 0 19.973 0 24.424 6.713 28 15 28 23.288 28 30 24.424 30 19.972c.069-3.037-3.355-5.804-8.424-7.085z"/>
</svg>
