<svg xmlns="http://www.w3.org/2000/svg" width="20" height="15" viewBox="0 0 20 15">
    <path fill="#75737F" d="M16.094 9.067c.431 0 .781.35.781.781v.938c0 .431-.35.781-.781.781h-1.797c-.432 0-.781-.35-.781-.781v-.938c0-.431.35-.78.78-.78h1.798zm2.343-1.406V5.317H1.563v6.245c0 .862.701 1.563 1.563 1.563h13.75c.862 0 1.563-.701 1.563-1.563 0-.431.35-.78.78-.78.432 0 .782.349.782.78 0 1.724-1.402 3.126-3.125 3.126H3.125C1.402 14.688 0 13.286 0 11.562V3.126C0 1.402 1.402 0 3.125 0h13.75C18.598 0 20 1.402 20 3.125v4.536c0 .431-.35.781-.781.781-.432 0-.782-.35-.782-.781zm0-3.906v-.63c0-.862-.7-1.563-1.562-1.563H3.125c-.862 0-1.563.701-1.563 1.563v.63h16.875zM3.908 6.88c-.432 0-.782.35-.782.781 0 .431.35.781.781.781h6.446c.431 0 .78-.35.78-.781 0-.432-.349-.781-.78-.781H3.906z"/>
</svg>
