<svg xmlns="http://www.w3.org/2000/svg" width="18" height="20" viewBox="0 0 18 20">
    <path fill="#75737F" d="M5.703 19.219c0 .431-.35.781-.781.781H3.125C1.402 20 0 18.598 0 16.875V3.125C0 1.402 1.402 0 3.125 0h9.605c1.723 0 3.125 1.402 3.125 3.125v4.648c0 .432-.35.782-.781.782-.432 0-.781-.35-.781-.782V3.125c0-.862-.701-1.563-1.563-1.563H3.125c-.862 0-1.563.701-1.563 1.563v13.75c0 .862.701 1.563 1.563 1.563h1.797c.431 0 .781.35.781.78zm7.027-13.75c0-.432-.35-.782-.781-.782H3.902c-.432 0-.781.35-.781.782 0 .431.35.781.78.781h8.048c.431 0 .78-.35.78-.781zM9.61 8.594c0-.432-.35-.781-.782-.781H3.902c-.432 0-.781.35-.781.78 0 .432.35.782.78.782h4.927c.432 0 .781-.35.781-.781zm-5.708 2.344c-.432 0-.781.35-.781.78 0 .432.35.782.78.782h3.247c.432 0 .782-.35.782-.781 0-.432-.35-.781-.782-.781H3.902zm13.63 8.48c-.301.37-.745.582-1.217.582h-7.63c-.475 0-.92-.212-1.22-.58-.302-.372-.42-.854-.322-1.324.252-1.216.92-2.322 1.882-3.115.364-.3.764-.55 1.188-.745-.472-.537-.76-1.241-.76-2.01 0-1.681 1.367-3.048 3.047-3.048 1.68 0 3.047 1.367 3.047 3.047 0 .77-.288 1.474-.76 2.01.424.196.824.446 1.188.746.942.777 1.603 1.855 1.866 3.042.007.02.012.042.016.063.098.472-.02.958-.325 1.333zm-6.516-7.193c0 .819.666 1.485 1.484 1.485s1.484-.666 1.484-1.485c0-.818-.666-1.484-1.484-1.484s-1.484.666-1.484 1.484zm5.312 6.19v-.001c-.376-1.807-1.986-3.118-3.828-3.118-1.842 0-3.452 1.311-3.827 3.118-.004.017.008.023.008.023H16.315s.01-.008.013-.022z"/>
</svg>
