<svg xmlns="http://www.w3.org/2000/svg" width="22" height="22" viewBox="0 0 22 22">
    <path fill="#504DA6" d="M13.836 22H6.875c-.475 0-.86-.385-.86-.86s.385-.86.86-.86h6.96c3.555 0 6.446-2.89 6.446-6.445 0-3.554-2.891-6.445-6.445-6.445h-5.93c-.948 0-1.719-.771-1.719-1.719v-3.95l-.004-.002s-.002 0-.002.002l-4.21 4.2c-.162.163-.252.38-.252.61 0 .23.09.446.253.609l4.209 4.2.002.002.004-.002v-.942c0-.475.385-.86.86-.86.474 0 .86.385.86.86v.942c0 .697-.418 1.32-1.063 1.588s-1.383.123-1.877-.371l-4.21-4.2C.27 7.868 0 7.22 0 6.53s.27-1.338.757-1.825L4.967.504C5.462.01 6.199-.136 6.844.132s1.062.892 1.062 1.59V5.67h5.93c4.502 0 8.164 3.662 8.164 8.164S18.338 22 13.836 22z"/>
</svg>
